<svg width="824" height="279" viewBox="0 0 824 279" fill="none" xmlns="http://www.w3.org/2000/svg">
<path d="M1.8 153V150.75H16.2V153H1.8ZM34.6383 150.3C32.5983 150.3 31.0383 149.74 29.9583 148.62C28.8783 147.48 28.3383 145.94 28.3383 144V128.1H31.0383V144C31.0383 145.2 31.3283 146.15 31.9083 146.85C32.5083 147.55 33.4183 147.9 34.6383 147.9C35.8383 147.9 36.7383 147.55 37.3383 146.85C37.9383 146.15 38.2383 145.2 38.2383 144V128.1H40.9383V144C40.9383 145.96 40.3983 147.5 39.3183 148.62C38.2583 149.74 36.6983 150.3 34.6383 150.3ZM54.4266 150V147.54H58.8966V130.56H54.4266V128.1H66.1266V130.56H61.6566V147.54H66.1266V150H54.4266ZM79.1648 153.3L89.8148 125.1H92.6648L82.0148 153.3H79.1648ZM111.553 150.3C109.513 150.3 107.953 149.74 106.873 148.62C105.793 147.48 105.253 145.94 105.253 144V128.1H107.953V144C107.953 145.2 108.243 146.15 108.823 146.85C109.423 147.55 110.333 147.9 111.553 147.9C112.753 147.9 113.653 147.55 114.253 146.85C114.853 146.15 115.153 145.2 115.153 144V128.1H117.853V144C117.853 145.96 117.313 147.5 116.233 148.62C115.173 149.74 113.613 150.3 111.553 150.3ZM129.391 150L135.691 138.9L129.721 128.1H132.841L136.231 134.58C136.411 134.92 136.591 135.29 136.771 135.69C136.971 136.07 137.131 136.37 137.251 136.59C137.351 136.37 137.491 136.07 137.671 135.69C137.871 135.29 138.061 134.92 138.241 134.58L141.691 128.1H144.661L138.691 138.72L144.991 150H141.901L138.151 143.04C137.971 142.7 137.781 142.34 137.581 141.96C137.401 141.56 137.261 141.24 137.161 141C137.061 141.24 136.911 141.55 136.711 141.93C136.531 142.31 136.351 142.67 136.171 143.01L132.391 150H129.391ZM182.228 150V128.1H187.898C189.318 128.1 190.538 128.37 191.558 128.91C192.598 129.45 193.398 130.21 193.958 131.19C194.538 132.17 194.828 133.33 194.828 134.67V143.4C194.828 144.74 194.538 145.91 193.958 146.91C193.398 147.89 192.598 148.65 191.558 149.19C190.538 149.73 189.318 150 187.898 150H182.228ZM184.928 147.6H187.898C189.218 147.6 190.248 147.23 190.988 146.49C191.748 145.75 192.128 144.72 192.128 143.4V134.67C192.128 133.37 191.748 132.35 190.988 131.61C190.248 130.87 189.218 130.5 187.898 130.5H184.928V147.6ZM208.106 150V128.1H220.706V130.56H210.776V137.34H219.656V139.77H210.776V147.54H220.706V150H208.106ZM239.865 150.3C238.425 150.3 237.185 150.06 236.145 149.58C235.125 149.1 234.335 148.41 233.775 147.51C233.215 146.61 232.925 145.54 232.905 144.3H235.605C235.605 145.4 235.975 146.27 236.715 146.91C237.475 147.55 238.525 147.87 239.865 147.87C241.125 147.87 242.105 147.56 242.805 146.94C243.525 146.32 243.885 145.46 243.885 144.36C243.885 143.48 243.645 142.71 243.165 142.05C242.705 141.39 242.035 140.93 241.155 140.67L238.185 139.74C236.685 139.28 235.525 138.51 234.705 137.43C233.905 136.35 233.505 135.08 233.505 133.62C233.505 132.44 233.765 131.42 234.285 130.56C234.825 129.68 235.575 129 236.535 128.52C237.495 128.02 238.625 127.77 239.925 127.77C241.845 127.77 243.385 128.31 244.545 129.39C245.705 130.45 246.295 131.87 246.315 133.65H243.615C243.615 132.57 243.285 131.73 242.625 131.13C241.985 130.51 241.075 130.2 239.895 130.2C238.735 130.2 237.825 130.48 237.165 131.04C236.525 131.6 236.205 132.38 236.205 133.38C236.205 134.28 236.445 135.06 236.925 135.72C237.405 136.38 238.095 136.85 238.995 137.13L241.995 138.09C243.455 138.55 244.585 139.33 245.385 140.43C246.185 141.53 246.585 142.82 246.585 144.3C246.585 145.5 246.305 146.55 245.745 147.45C245.185 148.35 244.395 149.05 243.375 149.55C242.375 150.05 241.205 150.3 239.865 150.3ZM259.533 150V147.54H264.003V130.56H259.533V128.1H271.233V130.56H266.763V147.54H271.233V150H259.533ZM291.141 150.3C289.821 150.3 288.671 150.05 287.691 149.55C286.731 149.05 285.981 148.33 285.441 147.39C284.921 146.43 284.661 145.3 284.661 144V134.1C284.661 132.78 284.921 131.65 285.441 130.71C285.981 129.77 286.731 129.05 287.691 128.55C288.671 128.05 289.821 127.8 291.141 127.8C292.461 127.8 293.601 128.06 294.561 128.58C295.521 129.08 296.261 129.8 296.781 130.74C297.301 131.68 297.561 132.8 297.561 134.1H294.861C294.861 132.86 294.531 131.91 293.871 131.25C293.231 130.57 292.321 130.23 291.141 130.23C289.961 130.23 289.031 130.56 288.351 131.22C287.691 131.88 287.361 132.83 287.361 134.07V144C287.361 145.24 287.691 146.2 288.351 146.88C289.031 147.56 289.961 147.9 291.141 147.9C292.321 147.9 293.231 147.56 293.871 146.88C294.531 146.2 294.861 145.24 294.861 144V141.3H290.421V138.84H297.561V144C297.561 145.28 297.301 146.4 296.781 147.36C296.261 148.3 295.521 149.03 294.561 149.55C293.601 150.05 292.461 150.3 291.141 150.3ZM310.359 150V128.1H313.959L320.649 146.85C320.609 146.35 320.559 145.74 320.499 145.02C320.459 144.28 320.419 143.51 320.379 142.71C320.359 141.89 320.349 141.12 320.349 140.4V128.1H322.959V150H319.359L312.699 131.25C312.739 131.73 312.779 132.34 312.819 133.08C312.859 133.8 312.889 134.57 312.909 135.39C312.949 136.19 312.969 136.96 312.969 137.7V150H310.359Z" fill="#484848"/>
<path d="M1.8 106V103.75H16.2V106H1.8ZM34.7583 103.3C33.4383 103.3 32.2883 103.05 31.3083 102.55C30.3483 102.05 29.5983 101.33 29.0583 100.39C28.5383 99.43 28.2783 98.3 28.2783 97V87.1C28.2783 85.78 28.5383 84.65 29.0583 83.71C29.5983 82.77 30.3483 82.05 31.3083 81.55C32.2883 81.05 33.4383 80.8 34.7583 80.8C36.0783 80.8 37.2183 81.06 38.1783 81.58C39.1383 82.08 39.8783 82.8 40.3983 83.74C40.9183 84.68 41.1783 85.8 41.1783 87.1H38.4783C38.4783 85.86 38.1483 84.91 37.4883 84.25C36.8483 83.57 35.9383 83.23 34.7583 83.23C33.5783 83.23 32.6483 83.56 31.9683 84.22C31.3083 84.88 30.9783 85.83 30.9783 87.07V97C30.9783 98.24 31.3083 99.2 31.9683 99.88C32.6483 100.56 33.5783 100.9 34.7583 100.9C35.9383 100.9 36.8483 100.56 37.4883 99.88C38.1483 99.2 38.4783 98.24 38.4783 97V94.3H34.0383V91.84H41.1783V97C41.1783 98.28 40.9183 99.4 40.3983 100.36C39.8783 101.3 39.1383 102.03 38.1783 102.55C37.2183 103.05 36.0783 103.3 34.7583 103.3ZM54.0366 103V81.1H60.8166C62.1166 81.1 63.2566 81.37 64.2366 81.91C65.2166 82.43 65.9766 83.16 66.5166 84.1C67.0566 85.04 67.3266 86.14 67.3266 87.4C67.3266 88.88 66.9366 90.15 66.1566 91.21C65.3966 92.27 64.3566 93 63.0366 93.4L67.6266 103H64.4466L60.2466 93.7H56.7366V103H54.0366ZM56.7366 91.27H60.8166C61.9366 91.27 62.8366 90.92 63.5166 90.22C64.1966 89.5 64.5366 88.56 64.5366 87.4C64.5366 86.22 64.1966 85.28 63.5166 84.58C62.8366 83.88 61.9366 83.53 60.8166 83.53H56.7366V91.27ZM78.4148 103L84.1148 81.1H87.7448L93.4148 103H90.6848L89.2448 97.18H82.6148L81.1748 103H78.4148ZM83.1548 94.9H88.6748L86.9948 88.15C86.6748 86.87 86.4248 85.8 86.2448 84.94C86.0648 84.08 85.9548 83.52 85.9148 83.26C85.8748 83.52 85.7648 84.08 85.5848 84.94C85.4048 85.8 85.1548 86.86 84.8348 88.12L83.1548 94.9ZM105.313 103V81.1H112.363C113.723 81.1 114.903 81.37 115.903 81.91C116.903 82.43 117.673 83.17 118.213 84.13C118.773 85.09 119.053 86.23 119.053 87.55C119.053 88.85 118.773 89.99 118.213 90.97C117.673 91.93 116.903 92.68 115.903 93.22C114.903 93.74 113.723 94 112.363 94H108.013V103H105.313ZM108.013 91.57H112.363C113.543 91.57 114.483 91.21 115.183 90.49C115.903 89.75 116.263 88.77 116.263 87.55C116.263 86.31 115.903 85.33 115.183 84.61C114.483 83.89 113.543 83.53 112.363 83.53H108.013V91.57ZM130.981 103V81.1H133.681V90.46H140.701V81.1H143.401V103H140.701V92.92H133.681V103H130.981ZM156.98 103V100.54H161.45V83.56H156.98V81.1H168.68V83.56H164.21V100.54H168.68V103H156.98ZM188.588 103.3C187.268 103.3 186.118 103.05 185.138 102.55C184.178 102.05 183.428 101.33 182.888 100.39C182.368 99.43 182.108 98.3 182.108 97V87.1C182.108 85.78 182.368 84.65 182.888 83.71C183.428 82.77 184.178 82.05 185.138 81.55C186.118 81.05 187.268 80.8 188.588 80.8C189.908 80.8 191.048 81.06 192.008 81.58C192.968 82.08 193.708 82.8 194.228 83.74C194.748 84.68 195.008 85.8 195.008 87.1H192.308C192.308 85.86 191.978 84.91 191.318 84.25C190.678 83.57 189.768 83.23 188.588 83.23C187.408 83.23 186.478 83.56 185.798 84.22C185.138 84.88 184.808 85.83 184.808 87.07V97C184.808 98.24 185.138 99.2 185.798 99.88C186.478 100.54 187.408 100.87 188.588 100.87C189.768 100.87 190.678 100.54 191.318 99.88C191.978 99.2 192.308 98.24 192.308 97H195.008C195.008 98.28 194.748 99.4 194.228 100.36C193.708 101.3 192.968 102.03 192.008 102.55C191.048 103.05 189.908 103.3 188.588 103.3ZM232.245 103L237.945 81.1H241.575L247.245 103H244.515L243.075 97.18H236.445L235.005 103H232.245ZM236.985 94.9H242.505L240.825 88.15C240.505 86.87 240.255 85.8 240.075 84.94C239.895 84.08 239.785 83.52 239.745 83.26C239.705 83.52 239.595 84.08 239.415 84.94C239.235 85.8 238.985 86.86 238.665 88.12L236.985 94.9ZM259.143 103V81.1H265.923C267.223 81.1 268.363 81.37 269.343 81.91C270.323 82.43 271.083 83.16 271.623 84.1C272.163 85.04 272.433 86.14 272.433 87.4C272.433 88.88 272.043 90.15 271.263 91.21C270.503 92.27 269.463 93 268.143 93.4L272.733 103H269.553L265.353 93.7H261.843V103H259.143ZM261.843 91.27H265.923C267.043 91.27 267.943 90.92 268.623 90.22C269.303 89.5 269.643 88.56 269.643 87.4C269.643 86.22 269.303 85.28 268.623 84.58C267.943 83.88 267.043 83.53 265.923 83.53H261.843V91.27ZM289.671 103V83.53H283.671V81.07H298.371V83.53H292.371V103H289.671ZM316.779 103.3C315.339 103.3 314.099 103.06 313.059 102.58C312.039 102.1 311.249 101.41 310.689 100.51C310.129 99.61 309.839 98.54 309.819 97.3H312.519C312.519 98.4 312.889 99.27 313.629 99.91C314.389 100.55 315.439 100.87 316.779 100.87C318.039 100.87 319.019 100.56 319.719 99.94C320.439 99.32 320.799 98.46 320.799 97.36C320.799 96.48 320.559 95.71 320.079 95.05C319.619 94.39 318.949 93.93 318.069 93.67L315.099 92.74C313.599 92.28 312.439 91.51 311.619 90.43C310.819 89.35 310.419 88.08 310.419 86.62C310.419 85.44 310.679 84.42 311.199 83.56C311.739 82.68 312.489 82 313.449 81.52C314.409 81.02 315.539 80.77 316.839 80.77C318.759 80.77 320.299 81.31 321.459 82.39C322.619 83.45 323.209 84.87 323.229 86.65H320.529C320.529 85.57 320.199 84.73 319.539 84.13C318.899 83.51 317.989 83.2 316.809 83.2C315.649 83.2 314.739 83.48 314.079 84.04C313.439 84.6 313.119 85.38 313.119 86.38C313.119 87.28 313.359 88.06 313.839 88.72C314.319 89.38 315.009 89.85 315.909 90.13L318.909 91.09C320.369 91.55 321.499 92.33 322.299 93.43C323.099 94.53 323.499 95.82 323.499 97.3C323.499 98.5 323.219 99.55 322.659 100.45C322.099 101.35 321.309 102.05 320.289 102.55C319.289 103.05 318.119 103.3 316.779 103.3Z" fill="#6C6C6C"/>
<path d="M2.8 200V197.75H17.2V200H2.8ZM29.4883 197V175.07H42.3883V177.53H32.1283V184.82H41.6083V187.28H32.1883V197H29.4883ZM55.0366 197V175.1H61.8166C63.1166 175.1 64.2566 175.37 65.2366 175.91C66.2166 176.43 66.9766 177.16 67.5166 178.1C68.0566 179.04 68.3266 180.14 68.3266 181.4C68.3266 182.88 67.9366 184.15 67.1566 185.21C66.3966 186.27 65.3566 187 64.0366 187.4L68.6266 197H65.4466L61.2466 187.7H57.7366V197H55.0366ZM57.7366 185.27H61.8166C62.9366 185.27 63.8366 184.92 64.5166 184.22C65.1966 183.5 65.5366 182.56 65.5366 181.4C65.5366 180.22 65.1966 179.28 64.5166 178.58C63.8366 177.88 62.9366 177.53 61.8166 177.53H57.7366V185.27ZM86.9148 197.3C85.5948 197.3 84.4548 197.05 83.4948 196.55C82.5548 196.05 81.8248 195.33 81.3048 194.39C80.8048 193.43 80.5548 192.3 80.5548 191V181.1C80.5548 179.78 80.8048 178.65 81.3048 177.71C81.8248 176.77 82.5548 176.05 83.4948 175.55C84.4548 175.05 85.5948 174.8 86.9148 174.8C88.2348 174.8 89.3648 175.05 90.3048 175.55C91.2648 176.05 91.9948 176.77 92.4948 177.71C93.0148 178.65 93.2748 179.77 93.2748 181.07V191C93.2748 192.3 93.0148 193.43 92.4948 194.39C91.9948 195.33 91.2648 196.05 90.3048 196.55C89.3648 197.05 88.2348 197.3 86.9148 197.3ZM86.9148 194.87C88.0948 194.87 88.9948 194.54 89.6148 193.88C90.2548 193.2 90.5748 192.24 90.5748 191V181.1C90.5748 179.86 90.2548 178.91 89.6148 178.25C88.9948 177.57 88.0948 177.23 86.9148 177.23C85.7548 177.23 84.8548 177.57 84.2148 178.25C83.5748 178.91 83.2548 179.86 83.2548 181.1V191C83.2548 192.24 83.5748 193.2 84.2148 193.88C84.8548 194.54 85.7548 194.87 86.9148 194.87ZM106.253 197V175.1H109.853L116.543 193.85C116.503 193.35 116.453 192.74 116.393 192.02C116.353 191.28 116.313 190.51 116.273 189.71C116.253 188.89 116.243 188.12 116.243 187.4V175.1H118.853V197H115.253L108.593 178.25C108.633 178.73 108.673 179.34 108.713 180.08C108.753 180.8 108.783 181.57 108.803 182.39C108.843 183.19 108.863 183.96 108.863 184.7V197H106.253ZM136.841 197V177.53H130.841V175.07H145.541V177.53H139.541V197H136.841ZM159.03 188.3V185.9H168.63V188.3H159.03ZM183.468 197V175.1H196.068V177.56H186.138V184.34H195.018V186.77H186.138V194.54H196.068V197H183.468ZM208.806 197V175.1H212.406L219.096 193.85C219.056 193.35 219.006 192.74 218.946 192.02C218.906 191.28 218.866 190.51 218.826 189.71C218.806 188.89 218.796 188.12 218.796 187.4V175.1H221.406V197H217.806L211.146 178.25C211.186 178.73 211.226 179.34 211.266 180.08C211.306 180.8 211.336 181.57 211.356 182.39C211.396 183.19 211.416 183.96 211.416 184.7V197H208.806ZM234.505 197V175.1H240.175C241.595 175.1 242.815 175.37 243.835 175.91C244.875 176.45 245.675 177.21 246.235 178.19C246.815 179.17 247.105 180.33 247.105 181.67V190.4C247.105 191.74 246.815 192.91 246.235 193.91C245.675 194.89 244.875 195.65 243.835 196.19C242.815 196.73 241.595 197 240.175 197H234.505ZM237.205 194.6H240.175C241.495 194.6 242.525 194.23 243.265 193.49C244.025 192.75 244.405 191.72 244.405 190.4V181.67C244.405 180.37 244.025 179.35 243.265 178.61C242.525 177.87 241.495 177.5 240.175 177.5H237.205V194.6ZM285.781 197V175.1H291.451C292.871 175.1 294.091 175.37 295.111 175.91C296.151 176.45 296.951 177.21 297.511 178.19C298.091 179.17 298.381 180.33 298.381 181.67V190.4C298.381 191.74 298.091 192.91 297.511 193.91C296.951 194.89 296.151 195.65 295.111 196.19C294.091 196.73 292.871 197 291.451 197H285.781ZM288.481 194.6H291.451C292.771 194.6 293.801 194.23 294.541 193.49C295.301 192.75 295.681 191.72 295.681 190.4V181.67C295.681 180.37 295.301 179.35 294.541 178.61C293.801 177.87 292.771 177.5 291.451 177.5H288.481V194.6ZM311.659 197V175.1H324.259V177.56H314.329V184.34H323.209V186.77H314.329V194.54H324.259V197H311.659ZM341.438 197L335.798 175.1H338.588L342.308 189.98C342.568 191.02 342.788 191.99 342.968 192.89C343.148 193.77 343.278 194.44 343.358 194.9C343.438 194.44 343.558 193.77 343.718 192.89C343.898 191.99 344.118 191.02 344.378 189.98L348.068 175.1H350.798L345.128 197H341.438ZM362.936 197V175.1H375.536V177.56H365.606V184.34H374.486V186.77H365.606V194.54H375.536V197H362.936ZM389.024 197V175.1H391.724V194.54H401.624V197H389.024ZM420.212 197.3C418.892 197.3 417.752 197.05 416.792 196.55C415.852 196.05 415.122 195.33 414.602 194.39C414.102 193.43 413.852 192.3 413.852 191V181.1C413.852 179.78 414.102 178.65 414.602 177.71C415.122 176.77 415.852 176.05 416.792 175.55C417.752 175.05 418.892 174.8 420.212 174.8C421.532 174.8 422.662 175.05 423.602 175.55C424.562 176.05 425.292 176.77 425.792 177.71C426.312 178.65 426.572 179.77 426.572 181.07V191C426.572 192.3 426.312 193.43 425.792 194.39C425.292 195.33 424.562 196.05 423.602 196.55C422.662 197.05 421.532 197.3 420.212 197.3ZM420.212 194.87C421.392 194.87 422.292 194.54 422.912 193.88C423.552 193.2 423.872 192.24 423.872 191V181.1C423.872 179.86 423.552 178.91 422.912 178.25C422.292 177.57 421.392 177.23 420.212 177.23C419.052 177.23 418.152 177.57 417.512 178.25C416.872 178.91 416.552 179.86 416.552 181.1V191C416.552 192.24 416.872 193.2 417.512 193.88C418.152 194.54 419.052 194.87 420.212 194.87ZM439.611 197V175.1H446.661C448.021 175.1 449.201 175.37 450.201 175.91C451.201 176.43 451.971 177.17 452.511 178.13C453.071 179.09 453.351 180.23 453.351 181.55C453.351 182.85 453.071 183.99 452.511 184.97C451.971 185.93 451.201 186.68 450.201 187.22C449.201 187.74 448.021 188 446.661 188H442.311V197H439.611ZM442.311 185.57H446.661C447.841 185.57 448.781 185.21 449.481 184.49C450.201 183.75 450.561 182.77 450.561 181.55C450.561 180.31 450.201 179.33 449.481 178.61C448.781 177.89 447.841 177.53 446.661 177.53H442.311V185.57ZM464.769 197V175.1H468.309L470.589 182.18C470.809 182.82 471.009 183.46 471.189 184.1C471.369 184.72 471.499 185.2 471.579 185.54C471.679 185.2 471.809 184.72 471.969 184.1C472.129 183.46 472.309 182.81 472.509 182.15L474.669 175.1H478.209V197H475.569V189.05C475.569 188.17 475.599 187.17 475.659 186.05C475.719 184.93 475.799 183.79 475.899 182.63C475.999 181.45 476.099 180.33 476.199 179.27C476.319 178.19 476.419 177.25 476.499 176.45L472.959 187.4H470.109L466.539 176.45C466.639 177.23 466.739 178.14 466.839 179.18C466.939 180.2 467.029 181.29 467.109 182.45C467.189 183.59 467.259 184.73 467.319 185.87C467.379 187.01 467.409 188.07 467.409 189.05V197H464.769ZM491.127 197V175.1H503.727V177.56H493.797V184.34H502.677V186.77H493.797V194.54H503.727V197H491.127ZM516.466 197V175.1H520.066L526.756 193.85C526.716 193.35 526.666 192.74 526.606 192.02C526.566 191.28 526.526 190.51 526.486 189.71C526.466 188.89 526.456 188.12 526.456 187.4V175.1H529.066V197H525.466L518.806 178.25C518.846 178.73 518.886 179.34 518.926 180.08C518.966 180.8 518.996 181.57 519.016 182.39C519.056 183.19 519.076 183.96 519.076 184.7V197H516.466ZM547.054 197V177.53H541.054V175.07H555.754V177.53H549.754V197H547.054Z" fill="#353535"/>
</svg>
